<svg xmlns="http://www.w3.org/2000/svg" width="320" height="320" viewBox="0 0 320 320">
  <defs>
    <linearGradient id="coily-bg" x1="0" y1="0" x2="1" y2="1">
      <stop offset="0" stop-color="#020617" />
      <stop offset="1" stop-color="#111827" />
    </linearGradient>
  </defs>
  <rect width="320" height="320" fill="url(#coily-bg)" rx="24" />
  <path d="M70 70 Q80 40 110 50 Q140 60 150 90 Q160 120 190 130 Q220 140 230 170 Q240 200 220 220 Q200 240 170 235 Q140 230 130 205 Q120 180 95 175 Q70 170 60 145 Q50 120 60 95 Z" fill="#0ea5e9" opacity="0.28" />
  <path d="M90 90 Q100 65 125 70 Q150 75 160 100 Q170 125 190 130 Q210 135 215 155 Q220 175 210 190 Q200 205 180 205 Q160 205 150 190 Q140 175 120 170 Q100 165 95 150 Q90 135 90 120 Z" fill="#38bdf8" opacity="0.4" />
  <text x="50%" y="84%" text-anchor="middle" fill="#f9fafb" font-family="system-ui, -apple-system, BlinkMacSystemFont, 'Segoe UI', sans-serif" font-size="18">
    Type 4 · Coily
  </text>
</svg>
